:SAMPLES-PER-SECOND 30
:FRAME-RANGE 1-1700
:FULLY-SPECIFIED
:DEGREES
957
root  -22.6115 39.7488 -82.0413 -172.804 -27.8217 178.011
RightUpLeg  -12.9879 -7.82328 -6.51464
RightLeg  16.8652 4.00792 1.53103
RightFoot  -11.0459 -0.0919342 6.53231
RightToes  6.35937e-011 1.2921e-014 -6.02303e-014
Spine  -3.12561 -2.6934 7.63123
Spine1  9.51618 -3.0757 0.186323
HEad  56.5792 49.8568 13.4929
LeftShoulder1  2.9533 -7.72364 -20.6219
LeftArm  32.4124 -11.0437 -35.7578
LeftForeArm  17.7619 -7.22739 -16.0518
LeftHand  -0.0309011 2.54435 0.716181
RightShoulder  1.82806 3.02992 22.6713
RightArm  15.4591 -5.30717 49.4131
RightForeArm  39.4773 33.7246 5.23723
RightHand  0.033927 -5.73397 -16.3535
LeftUpLeg  -23.2172 14.3449 -0.105208
LeftLeg  40.9945 0.421544 0.774419
LeftFoot  -6.37588 0.293647 -5.88832
LeftToes  -1.9349e-011 5.45182e-011 1.33515e-010
958
root  -22.9081 39.8197 -82.6479 -172.417 -29.9579 177.867
RightUpLeg  -11.186 -7.78745 -6.69145
RightLeg  15.7539 1.98042 0.993332
RightFoot  -11.5829 -0.063985 6.98516
RightToes  6.35937e-011 1.2921e-014 -6.02303e-014
Spine  -3.23459 -2.49673 7.17178
Spine1  9.29618 -2.98948 0.417296
HEad  55.8175 49.7013 13.4138
LeftShoulder1  2.8508 -7.59003 -19.9653
LeftArm  33.6624 -10.7965 -34.8487
LeftForeArm  16.4239 -8.91758 -15.2867
LeftHand  -0.0351622 2.51421 0.892121
RightShoulder  1.8538 3.15373 22.51
RightArm  16.6518 -3.22866 51.7291
RightForeArm  39.978 37.2538 6.10697
RightHand  0.011931 -5.59404 -15.4301
LeftUpLeg  -24.1634 14.7163 0.249922
LeftLeg  33.9677 0.585407 0.776298
LeftFoot  -5.82266 0.31979 -5.90813
LeftToes  -1.9349e-011 5.45182e-011 1.33515e-010
959
root  -23.2769 39.8786 -83.2421 -172.11 -32.2212 177.776
RightUpLeg  -9.0454 -7.70211 -6.82969
RightLeg  14.2784 -0.33768 0.498913
RightFoot  -12.0466 -0.0357824 7.4816
RightToes  6.35937e-011 1.2921e-014 -6.02303e-014
Spine  -3.46201 -2.24893 6.88567
Spine1  9.10668 -2.81075 0.434124
HEad  55.4454 49.3747 13.527
LeftShoulder1  2.73403 -7.37865 -19.3467
LeftArm  31.7619 -10.939 -34.4949
LeftForeArm  18.4375 -9.2619 -14.8526
LeftHand  -0.0384842 2.75997 0.833792
RightShoulder  1.85844 3.21046 22.3211
RightArm  17.7209 -1.32394 54.0382
RightForeArm  39.852 39.8148 6.82045
RightHand  0.00487468 -5.55026 -14.87
LeftUpLeg  -24.3987 13.6658 0.728491
LeftLeg  25.8099 2.81701 1.81473
LeftFoot  -4.52294 0.33739 -5.2066
LeftToes  -1.9349e-011 5.45182e-011 1.33515e-010
960
root  -23.7178 39.9002 -83.7808 -171.709 -34.3922 177.577
RightUpLeg  -7.1486 -7.84373 -7.15281
RightLeg  13.1539 -2.22914 0.248857
RightFoot  -12.6255 0.00499353 8.09255
RightToes  6.35937e-011 1.2921e-014 -6.02303e-014
Spine  -3.64627 -1.95699 6.62828
Spine1  8.87118 -2.53793 0.31257
HEad  54.9807 49.3281 13.3553
LeftShoulder1  2.6321 -7.13777 -18.9309
LeftArm  27.1763 -11.4669 -34.5669
LeftForeArm  21.3355 -8.08271 -15.0159
LeftHand  -0.0387495 2.86731 0.876622
RightShoulder  1.92184 3.45453 22.2297
RightArm  18.6255 0.589683 55.9894
RightForeArm  39.7596 41.2122 7.23475
RightHand  0.00782088 -5.58678 -14.2666
LeftUpLeg  -24.0324 11.0208 1.22298
LeftLeg  16.9056 7.96836 3.03331
LeftFoot  -3.75062 0.271523 -3.75328
LeftToes  -1.9349e-011 5.45182e-011 1.33515e-010
961
root  -24.2415 39.8851 -84.2777 -171.354 -36.4189 177.478
RightUpLeg  -5.39813 -7.97594 -7.40368
RightLeg  12.3178 -3.99163 -0.0162209
RightFoot  -13.2374 0.0559197 8.80306
RightToes  6.35937e-011 1.2921e-014 -6.02303e-014
Spine  -3.95382 -1.6422 6.55124
Spine1  8.92032 -2.17127 -0.0447821
HEad  53.888 49.2613 12.6112
LeftShoulder1  2.52404 -6.84456 -18.5676
LeftArm  21.8363 -12.0359 -35.057
LeftForeArm  23.972 -6.45721 -15.2077
LeftHand  -0.0375381 2.90206 1.05079
RightShoulder  1.99712 3.70015 22.3189
RightArm  19.867 2.93468 57.4116
RightForeArm  39.5896 41.2155 7.24607
RightHand  -0.0065883 -5.46893 -14.1183
LeftUpLeg  -23.397 5.30294 3.05847
LeftLeg  8.27583 16.5318 2.47843
LeftFoot  -1.91822 0.207538 -2.37843
LeftToes  -1.9349e-011 5.45182e-011 1.33515e-010
962
root  -24.8617 39.8283 -84.7272 -171.223 -38.8231 177.648
RightUpLeg  -3.40673 -8.06354 -7.52139
RightLeg  11.4249 -6.06427 -0.222009
RightFoot  -13.8782 0.126657 9.9613
RightToes  6.35937e-011 1.2921e-014 -6.02303e-014
Spine  -4.12582 -1.49482 6.56139
Spine1  8.8954 -2.0352 -0.101692
HEad  52.0544 49.2299 11.2975
LeftShoulder1  2.44972 -6.57811 -18.4793
LeftArm  18.056 -12.2921 -35.801
LeftForeArm  25.5763 -5.63973 -15.0882
LeftHand  -0.0364349 2.84265 0.988341
RightShoulder  2.01748 3.81428 22.1391
RightArm  20.9816 5.24455 58.7367
RightForeArm  39.3606 39.9012 6.87436
RightHand  -0.0319791 -5.2547 -13.8591
LeftUpLeg  -23.3592 2.92689 3.16478
LeftLeg  0.793028 21.3513 1.58713
LeftFoot  0.139164 0.193389 -1.93272
LeftToes  -1.9349e-011 5.45182e-011 1.33515e-010
963
root  -25.589 39.6883 -85.1429 -171.159 -41.464 177.917
RightUpLeg  -1.53474 -8.2274 -7.63972
RightLeg  11.1099 -8.11599 -0.41834
RightFoot  -14.7813 0.237371 11.2226
RightToes  6.35937e-011 1.2921e-014 -6.02303e-014
Spine  -4.37751 -1.36082 6.64317
Spine1  8.86181 -1.98866 0.0762646
HEad  49.303 48.7287 9.48229
LeftShoulder1  2.44308 -6.59386 -18.3642
LeftArm  16.02 -12.2503 -36.9227
LeftForeArm  26.3428 -5.38145 -14.9104
LeftHand  -0.0380726 2.80314 1.08321
RightShoulder  2.02342 3.90356 21.8543
RightArm  21.3481 7.26222 59.7777
RightForeArm  38.8025 37.5927 6.26467
RightHand  -0.0680442 -4.94233 -13.7549
LeftUpLeg  -24.0248 1.47583 2.3584
LeftLeg  -4.14057 28.0903 0.632934
LeftFoot  -0.183923 0.141471 -1.43742
LeftToes  -1.9349e-011 5.45182e-011 1.33515e-010
964
root  -26.4154 39.4794 -85.532 -171.38 -43.9188 178.361
RightUpLeg  0.386429 -8.44983 -7.75502
RightLeg  11.2036 -9.76129 -0.619961
RightFoot  -15.8858 0.402614 12.825
RightToes  6.35937e-011 1.2921e-014 -6.02303e-014
Spine  -4.22508 -1.16377 6.90325
Spine1  8.53678 -1.82265 0.11701
HEad  45.9221 47.718 7.32613
LeftShoulder1  2.40019 -6.5547 -17.9994
LeftArm  14.8296 -12.0125 -38.6007
LeftForeArm  27.0397 -5.15204 -14.7999
LeftHand  -0.0400686 2.64673 1.21467
RightShoulder  2.04146 4.01033 21.6824
RightArm  21.1372 8.87832 60.3041
RightForeArm  38.5024 34.8326 5.56421
RightHand  -0.104209 -4.6491 -14.1651
LeftUpLeg  -25.2085 1.1397 1.327
LeftLeg  -5.49095 35.5077 -0.68118
LeftFoot  -1.96302 0.067532 -0.679164
LeftToes  -1.9349e-011 5.45182e-011 1.33515e-010
965
root  -27.3322 39.2539 -85.9033 -171.76 -45.8008 178.888
RightUpLeg  2.07306 -8.90251 -7.97783
RightLeg  11.8963 -10.4624 -0.954157
RightFoot  -16.8149 0.587085 14.6071
RightToes  6.35937e-011 1.2921e-014 -6.02303e-014
Spine  -3.96369 -0.823902 7.19935
Spine1  8.29245 -1.39178 -0.149007
HEad  42.3349 46.4244 5.25807
LeftShoulder1  2.35748 -6.55169 -17.5377
LeftArm  14.4035 -11.035 -40.5294
LeftForeArm  27.4785 -5.56681 -14.5336
LeftHand  -0.0438847 2.69782 1.29927
RightShoulder  2.06659 4.09925 21.6891
RightArm  20.2309 9.94592 60.2848
RightForeArm  39.035 32.3644 4.93458
RightHand  -0.109085 -4.62331 -14.4736
LeftUpLeg  -26.3729 1.32184 0.23288
LeftLeg  -3.72023 39.6269 -0.755528
LeftFoot  -2.01671 -0.185814 2.42777
LeftToes  -1.9349e-011 5.45182e-011 1.33515e-010
966
root  -28.3999 39.0132 -86.3066 -172.353 -46.6869 179.499
RightUpLeg  3.66332 -9.85043 -8.65873
RightLeg  13.1698 -9.17021 -1.17161
RightFoot  -17.5402 0.785349 16.6071
RightToes  6.35937e-011 1.2921e-014 -6.02303e-014
Spine  -4.08563 -0.360303 7.33374
Spine1  8.46638 -0.778956 -0.617607
HEad  39.5511 45.4069 3.99952
LeftShoulder1  2.25668 -6.23072 -17.2639
LeftArm  14.8301 -9.13626 -42.276
LeftForeArm  27.401 -6.42736 -14.1954
LeftHand  -0.0471302 2.77968 1.47055
RightShoulder  2.1053 4.20369 21.8275
RightArm  19.988 10.6024 60.0092
RightForeArm  38.8185 29.74 4.34249
RightHand  -0.097542 -4.74041 -15.0398
LeftUpLeg  -26.6539 2.18413 -0.80637
LeftLeg  -0.123606 41.4081 -0.0231516
LeftFoot  -3.76321 -0.264942 4.34158
LeftToes  -1.9349e-011 5.45182e-011 1.33515e-010
967
root  -29.6193 38.8482 -86.7122 -173.038 -46.3393 179.972
RightUpLeg  5.36589 -10.9837 -10.097
RightLeg  14.3021 -5.89823 -1.16104
RightFoot  -17.4719 0.91048 19.0685
RightToes  6.35937e-011 1.2921e-014 -6.02303e-014
Spine  -4.29659 0.0982413 7.07798
Spine1  8.73616 0.0130146 -1.58535
HEad  37.9106 44.6827 3.8085
LeftShoulder1  2.06509 -5.49723 -17.0406
LeftArm  14.6005 -5.74715 -43.978
LeftForeArm  27.1909 -7.00421 -13.8812
LeftHand  -0.055395 2.86713 1.89486
RightShoulder  2.16534 4.35109 22.0918
RightArm  21.0386 10.7085 59.5783
RightForeArm  37.4794 26.7785 3.76486
RightHand  -0.0905485 -4.82101 -15.8281
LeftUpLeg  -25.8563 2.88473 -1.67281
LeftLeg  3.75832 41.7596 1.61794
LeftFoot  -5.37831 -0.260363 5.61733
LeftToes  -1.9349e-011 5.45182e-011 1.33515e-010
968
root  -30.8889 38.8127 -87.0221 -173.526 -45.5581 179.73
RightUpLeg  6.17569 -9.72898 -12.0245
RightLeg  17.1343 -3.62474 -1.45109
RightFoot  -16.2222 0.846074 22.1969
RightToes  6.35937e-011 1.2921e-014 -6.02303e-014
Spine  -3.68465 0.118674 5.59727
Spine1  8.36664 0.330899 -2.33344
HEad  37.5767 45.2421 3.76392
LeftShoulder1  1.87099 -4.35371 -18.0888
LeftArm  14.6401 -1.39988 -44.419
LeftForeArm  26.6997 -7.50929 -13.6536
LeftHand  -0.0589245 2.85627 2.05647
RightShoulder  2.1885 4.3201 22.5376
RightArm  23.9164 10.974 59.1348
RightForeArm  35.3403 22.8876 3.51394
RightHand  -0.0820082 -4.89802 -16.3464
LeftUpLeg  -24.8914 1.84142 -2.45563
LeftLeg  5.89273 42.7337 4.43717
LeftFoot  2.09427 -0.904882 7.56244
LeftToes  -1.9349e-011 5.45182e-011 1.33515e-010
969
root  -32.1428 38.8368 -87.2613 -173.153 -46.5465 178.932
RightUpLeg  4.33862 -7.02623 -13.5806
RightLeg  24.3838 -4.04815 -2.2221
RightFoot  -13.6398 0.411883 24.8283
RightToes  6.35937e-011 1.2921e-014 -6.02303e-014
Spine  -3.10148 -0.444197 3.27384
Spine1  7.34354 -0.428911 -1.76737
HEad  36.6375 45.5958 3.26627
LeftShoulder1  1.75287 -3.45754 -19.6935
LeftArm  11.1048 1.96426 -44.4777
LeftForeArm  29.4145 -5.18539 -14.11
LeftHand  -0.0645188 2.93008 2.3751
RightShoulder  2.09964 3.77657 23.5333
RightArm  14.9047 11.4501 57.6908
RightForeArm  45.2922 16.9447 7.81988
RightHand  -0.0306819 -5.26905 -17.2335
LeftUpLeg  -24.0729 2.62517 -3.68989
LeftLeg  8.5578 41.0905 4.43516
LeftFoot  1.81624 -0.76956 6.56952
LeftToes  -1.9349e-011 5.45182e-011 1.33515e-010
